<svg width="15" height="22" viewBox="0 0 15 22" fill="none" xmlns="http://www.w3.org/2000/svg">
<path d="M14.5039 2.78973C14.3185 2.50618 14.0477 2.49803 13.7392 2.48875C13.7042 2.4877 13.6688 2.48664 13.6329 2.48515C13.6056 2.4839 13.5754 2.48438 13.5439 2.48489C13.4188 2.4869 13.2724 2.48924 13.1987 2.38421C13.1132 2.26243 13.1213 2.02709 13.128 1.83281C13.1301 1.77142 13.1321 1.71409 13.1309 1.66578C13.1189 1.21446 13.0938 0.735051 12.9194 0.574784C12.7879 0.454538 12.3944 0.471196 12.0316 0.486559C11.914 0.49154 11.7995 0.496384 11.6983 0.496384H3.97486C3.81935 0.496384 3.65635 0.483735 3.49618 0.471307C3.1841 0.447091 2.88281 0.423712 2.66886 0.496384C2.35836 0.602366 2.33733 1.15928 2.31754 1.6837L2.31647 1.71192C2.29985 2.14485 2.19244 2.47891 1.83647 2.44526C1.42245 2.40675 1.01047 2.39461 0.823282 2.76892C0.602204 3.21178 0.647799 3.67536 0.729466 4.50571C0.741132 4.62432 0.753534 4.75041 0.766 4.885H14.6233C14.6312 4.78663 14.6397 4.68952 14.648 4.59398C14.7129 3.84692 14.7694 3.19602 14.5039 2.78973Z" fill="#8047f8"/>
<path fill-rule="evenodd" clip-rule="evenodd" d="M1.84517 5.70854C2.06159 8.63448 2.27565 11.5638 2.48972 14.4931L2.48985 14.4949C2.60608 16.0854 2.72231 17.676 2.83892 19.266H3.28107C3.3112 19.5149 3.34568 19.8222 3.38202 20.1461C3.45581 20.8038 3.53732 21.5303 3.60585 21.9767H3.65475C4.10512 21.8121 7.21858 20.4827 7.21998 15.1902C7.21941 15.1751 7.21991 15.16 7.22148 15.145H6.45228C6.41504 15.1447 6.37894 15.1323 6.34955 15.1097C6.32015 15.0871 6.29908 15.0556 6.28957 15.0201C6.21462 14.8351 6.15418 14.6447 6.1088 14.4506C5.65628 14.7059 5.29694 15.0957 5.08197 15.5646C4.87791 15.0844 4.8512 14.5487 5.00651 14.0511C5.16182 13.5535 5.48926 13.1256 5.93163 12.8422C5.93733 11.2978 6.51619 9.80912 7.55864 8.65783L7.57491 8.64355C7.60521 8.61738 7.644 8.60282 7.68423 8.6025C7.7075 8.60269 7.73048 8.60765 7.75171 8.61707C7.77319 8.62661 7.79241 8.64049 7.80812 8.65783C8.86275 9.81068 9.43855 11.3137 9.42067 12.8672C9.8713 13.1427 10.2054 13.5703 10.361 14.0706C10.5166 14.5709 10.4831 15.11 10.2667 15.5878C10.0529 15.1182 9.69327 14.7281 9.23989 14.4738C9.21219 14.662 9.16119 14.846 9.08804 15.0219C9.06273 15.0968 9.01211 15.145 8.96149 15.145H8.14118C8.14247 15.154 8.14339 15.163 8.14392 15.1721L8.14423 15.1742L8.14423 15.1785C8.14452 15.1863 8.14453 15.1941 8.14426 15.202C8.15548 20.6464 11.4658 21.8822 11.7448 21.9767H11.8402C11.8646 21.5479 11.9439 20.9562 12.0213 20.3793C12.0745 19.9817 12.1269 19.5913 12.1596 19.266H12.6069C12.7501 17.2632 12.8973 15.266 13.0446 13.2688L13.0446 13.2677L13.0447 13.2671C13.233 10.7124 13.4214 8.15762 13.6012 5.59094H1.87381C1.84005 5.59753 1.84235 5.65268 1.84517 5.70854ZM7.68423 8.6025L7.68338 8.60249H7.68519L7.68423 8.6025Z" fill="#8047f8"/>
</svg>
